<svg width="76" height="76" viewBox="0 0 76 76" fill="none" xmlns="http://www.w3.org/2000/svg">
<circle cx="38" cy="38" r="38" fill="#C49D7F"/>
<path fill-rule="evenodd" clip-rule="evenodd" d="M34.6874 49.637C36.3146 48.0099 38.9528 48.0099 40.58 49.637L37.6337 52.5833L34.6874 49.637ZM28.7949 43.7445C33.6764 38.8629 41.591 38.8629 46.4725 43.7445L43.5263 46.6908C40.2719 43.4364 34.9955 43.4364 31.7411 46.6908L28.7949 43.7445ZM22.9023 37.8519C31.0382 29.716 44.2292 29.716 52.3651 37.8519L49.4188 40.7982C42.9101 34.2895 32.3573 34.2895 25.8486 40.7982L22.9023 37.8519ZM17.167 32.1166C17.2188 32.0641 17.2708 32.0116 17.3231 31.9594C28.6611 20.6213 47.0113 20.5693 58.4137 31.8033L55.4673 34.7497C45.6922 25.1428 29.9802 25.1948 20.2693 34.9057C20.2171 34.9579 20.1651 35.0104 20.1134 35.063L17.167 32.1166Z" fill="white"/>
</svg>
