<svg width="76" height="76" viewBox="0 0 76 76" fill="none" xmlns="http://www.w3.org/2000/svg">
<circle cx="38" cy="38" r="38" fill="#C49D7F"/>
<path d="M38 41.125C42.3147 41.125 45.8125 37.6272 45.8125 33.3125C45.8125 28.9978 42.3147 25.5 38 25.5C33.6853 25.5 30.1875 28.9978 30.1875 33.3125C30.1875 37.6272 33.6853 41.125 38 41.125Z" stroke="white" stroke-width="3" stroke-linecap="round" stroke-linejoin="round"/>
<path d="M48.9375 56.75C48.9375 53.8492 47.7852 51.0672 45.734 49.016C43.6828 46.9648 40.9008 45.8125 38 45.8125C35.0992 45.8125 32.3172 46.9648 30.266 49.016C28.2148 51.0672 27.0625 53.8492 27.0625 56.75H48.9375Z" stroke="white" stroke-width="3" stroke-linecap="round" stroke-linejoin="round"/>
<path d="M50.5 34.875C51.8317 34.875 53.1413 34.5346 54.3044 33.8861C55.4675 33.2376 56.4456 32.3026 57.1457 31.1698C57.8458 30.037 58.2447 28.744 58.3046 27.4137C58.3645 26.0833 58.0833 24.7597 57.4877 23.5686C56.8922 22.3775 56.002 21.3584 54.9018 20.6081C53.8016 19.8578 52.5279 19.4012 51.2016 19.2816C49.8753 19.162 48.5404 19.3834 47.3238 19.9248C46.1071 20.4662 45.049 21.3096 44.25 22.375" stroke="white" stroke-width="3" stroke-linecap="round" stroke-linejoin="round"/>
<path d="M52.0625 50.5H61.4375C61.4375 47.5992 60.2852 44.8172 58.234 42.766C56.1828 40.7148 53.4008 39.5625 50.5 39.5625" stroke="white" stroke-width="3" stroke-linecap="round" stroke-linejoin="round"/>
<path d="M31.75 22.375C30.951 21.3096 29.8929 20.4662 28.6762 19.9248C27.4596 19.3834 26.1247 19.162 24.7984 19.2816C23.4721 19.4012 22.1984 19.8578 21.0982 20.6081C19.998 21.3584 19.1078 22.3775 18.5123 23.5686C17.9167 24.7597 17.6355 26.0833 17.6954 27.4137C17.7553 28.744 18.1542 30.037 18.8543 31.1698C19.5544 32.3026 20.5325 33.2376 21.6956 33.8861C22.8587 34.5346 24.1683 34.875 25.5 34.875" stroke="white" stroke-width="3" stroke-linecap="round" stroke-linejoin="round"/>
<path d="M25.5 39.5625C22.5992 39.5625 19.8172 40.7148 17.766 42.766C15.7148 44.8172 14.5625 47.5992 14.5625 50.5H23.9375" stroke="white" stroke-width="3" stroke-linecap="round" stroke-linejoin="round"/>
</svg>
