<svg width="20" height="20" viewBox="0 0 20 20" fill="none" xmlns="http://www.w3.org/2000/svg">
<path fill-rule="evenodd" clip-rule="evenodd" d="M8.8605 6.33823C9.37855 5.6401 9.56431 4.90432 8.97841 4.25485C7.66359 2.41506 6.77934 1.27734 6.2247 0.72944C5.17024 -0.312188 3.43565 -0.171291 2.52242 0.72855C2.03191 1.21186 1.86585 1.37784 1.36221 1.88939C-1.44315 4.69627 0.267702 10.6299 4.81578 15.1825C9.36283 19.734 15.2959 21.4457 18.1072 18.6329C18.5719 18.1849 18.9654 17.7912 19.2757 17.4632C20.1707 16.5173 20.3065 14.8592 19.2698 13.782C18.7383 13.2297 17.6534 12.3882 15.7362 11.0168C15.149 10.4917 14.4528 10.6055 13.8145 11.0243C13.5075 11.2257 13.284 11.4295 12.8621 11.8518L12.096 12.6184C11.995 12.7194 10.6248 12.0332 9.29465 10.7017C7.96379 9.36956 7.27804 7.99923 7.37848 7.89879L8.14518 7.13168C8.27904 6.99768 8.34303 6.93281 8.42511 6.84655C8.5961 6.66684 8.73767 6.50375 8.8605 6.33823ZM13.5091 14.0322L14.2755 13.2655C14.5077 13.033 14.6582 12.8901 14.7806 12.7916C16.4601 13.9977 17.4327 14.756 17.83 15.1689C18.0686 15.4167 18.0315 15.8689 17.8241 16.0881C17.5372 16.3914 17.1644 16.7645 16.7068 17.2057C14.889 19.0244 10.0997 17.6426 6.22928 13.7684C2.35769 9.89301 0.976566 5.10297 2.7807 3.29785C3.28231 2.78839 3.44124 2.62955 3.92474 2.15313C4.10603 1.9745 4.59984 1.93439 4.82037 2.15224C5.24739 2.57407 6.03951 3.58832 7.20476 5.2115C7.14444 5.28639 7.06909 5.37102 6.97741 5.46739C6.91011 5.53811 6.85405 5.59494 6.73148 5.71763L5.96554 6.484C4.66252 7.78691 5.77222 10.0044 7.88096 12.1152C9.98825 14.2246 12.2066 15.3355 13.5091 14.0322ZM11.6586 0.0704126C15.9815 0.594397 19.4092 4.0221 19.9332 8.34498L17.958 8.67419C17.5766 5.19217 14.8114 2.42703 11.3294 2.04565L11.6586 0.0704126ZM11 4.02211C13.6413 4.25835 15.7449 6.36195 15.9811 9.0032L13.9996 9.33346C13.9155 7.53276 12.4705 6.08778 10.6698 6.00369L11 4.02211Z" fill="#151515"/>
</svg>
