<svg width="63" height="71" viewBox="0 0 63 71" fill="none" xmlns="http://www.w3.org/2000/svg">
<g clip-path="url(#clip0_224_1520)">
<path fill-rule="evenodd" clip-rule="evenodd" d="M31.501 0.334473C37.0929 0.334289 42.5818 1.83854 47.3923 4.68951C52.2028 7.54048 56.1577 11.6332 58.8423 16.5384C61.5269 21.4437 62.8424 26.9809 62.6507 32.5695C62.4591 38.1581 60.7675 43.5922 57.7532 48.3021H5.23429C2.22135 43.5908 0.531281 38.1557 0.341249 32.5666C0.151217 26.9775 1.46822 21.4402 4.1542 16.5351C6.84019 11.63 10.7962 7.53782 15.6077 4.68747C20.4191 1.83712 25.9087 0.333587 31.501 0.334473Z" fill="#C59D7E"/>
<path d="M31.501 0.334473C37.0929 0.334289 42.5818 1.83854 47.3923 4.68951C52.2028 7.54048 56.1577 11.6332 58.8423 16.5384C61.5269 21.4437 62.8424 26.9809 62.6507 32.5695C62.4591 38.1581 60.7675 43.5922 57.7532 48.3021H5.23429C2.22135 43.5908 0.531281 38.1557 0.341249 32.5666C0.151217 26.9775 1.46822 21.4402 4.1542 16.5351C6.84019 11.63 10.7962 7.53782 15.6077 4.68747C20.4191 1.83712 25.9087 0.333587 31.501 0.334473V0.334473Z" stroke="#222B3C" stroke-width="0.665974" stroke-miterlimit="10"/>
<path fill-rule="evenodd" clip-rule="evenodd" d="M17.3641 24.0565C17.4458 24.0565 17.5257 24.0807 17.5936 24.1261C17.6615 24.1715 17.7144 24.236 17.7457 24.3114C17.7769 24.3869 17.7851 24.4699 17.7692 24.55C17.7532 24.6302 17.7139 24.7037 17.6561 24.7615C17.5984 24.8192 17.5248 24.8586 17.4447 24.8745C17.3646 24.8904 17.2816 24.8823 17.2061 24.851C17.1306 24.8198 17.0661 24.7668 17.0208 24.6989C16.9754 24.631 16.9512 24.5512 16.9512 24.4695C16.9519 24.3602 16.9957 24.2556 17.073 24.1783C17.1502 24.101 17.2548 24.0573 17.3641 24.0565Z" fill="#222B3C"/>
<path fill-rule="evenodd" clip-rule="evenodd" d="M21.3372 15.6693C21.4862 15.6693 21.6318 15.7135 21.7557 15.7963C21.8795 15.879 21.9761 15.9967 22.0331 16.1343C22.0901 16.2719 22.105 16.4234 22.076 16.5695C22.0469 16.7156 21.9752 16.8498 21.8698 16.9551C21.7645 17.0605 21.6303 17.1322 21.4841 17.1613C21.338 17.1903 21.1866 17.1754 21.049 17.1184C20.9113 17.0614 20.7937 16.9649 20.7109 16.841C20.6282 16.7171 20.584 16.5715 20.584 16.4225C20.584 16.3236 20.6035 16.2257 20.6413 16.1343C20.6792 16.0429 20.7347 15.9599 20.8046 15.8899C20.8745 15.82 20.9576 15.7645 21.049 15.7266C21.1403 15.6888 21.2383 15.6693 21.3372 15.6693Z" fill="#222B3C"/>
<path fill-rule="evenodd" clip-rule="evenodd" d="M45.6585 18.3215C45.8073 18.3221 45.9527 18.3668 46.0761 18.4499C46.1996 18.533 46.2957 18.6508 46.3523 18.7885C46.4088 18.9262 46.4233 19.0776 46.394 19.2235C46.3646 19.3694 46.2926 19.5033 46.1871 19.6084C46.0817 19.7134 45.9475 19.7849 45.8014 19.8137C45.6554 19.8425 45.5041 19.8275 45.3667 19.7704C45.2292 19.7133 45.1117 19.6167 45.0291 19.4929C44.9465 19.3691 44.9023 19.2236 44.9023 19.0748C44.9023 18.9756 44.9219 18.8774 44.96 18.7858C44.998 18.6943 45.0537 18.6111 45.124 18.5411C45.1942 18.4711 45.2776 18.4157 45.3693 18.378C45.4611 18.3404 45.5593 18.3212 45.6585 18.3215Z" fill="#222B3C"/>
<path fill-rule="evenodd" clip-rule="evenodd" d="M13.7118 19.3365C13.7935 19.3365 13.8733 19.3608 13.9412 19.4061C14.0091 19.4515 14.0621 19.516 14.0933 19.5915C14.1246 19.6669 14.1328 19.75 14.1168 19.8301C14.1009 19.9102 14.0616 19.9838 14.0038 20.0415C13.946 20.0993 13.8725 20.1386 13.7924 20.1545C13.7122 20.1705 13.6292 20.1623 13.5538 20.131C13.4783 20.0998 13.4138 20.0469 13.3684 19.9789C13.323 19.911 13.2988 19.8312 13.2988 19.7495C13.2988 19.64 13.3423 19.5349 13.4198 19.4575C13.4972 19.3801 13.6023 19.3365 13.7118 19.3365Z" fill="#222B3C"/>
<path fill-rule="evenodd" clip-rule="evenodd" d="M52.0331 24.0159C52.1149 24.0153 52.195 24.039 52.2633 24.0841C52.3316 24.1291 52.385 24.1934 52.4167 24.2688C52.4484 24.3442 52.457 24.4273 52.4414 24.5076C52.4258 24.5879 52.3867 24.6618 52.3291 24.7198C52.2714 24.7779 52.1978 24.8175 52.1177 24.8336C52.0375 24.8498 51.9543 24.8418 51.8787 24.8106C51.803 24.7795 51.7384 24.7265 51.6929 24.6586C51.6474 24.5906 51.6231 24.5106 51.6231 24.4288C51.6227 24.3747 51.633 24.3211 51.6534 24.271C51.6739 24.2209 51.704 24.1754 51.7421 24.137C51.7802 24.0986 51.8256 24.0682 51.8755 24.0474C51.9255 24.0266 51.979 24.0159 52.0331 24.0159Z" fill="#222B3C"/>
<path fill-rule="evenodd" clip-rule="evenodd" d="M31.2768 15.3175C29.0026 13.3922 33.077 12.6303 32.1493 15.3175C31.6869 16.6552 29.6395 16.6145 28.7263 15.8293C24.8294 12.4645 32.4662 6.69178 35.6304 12.6303C36.7442 14.698 36.3894 17.2834 34.9615 19.0952C35.9648 17.5975 36.814 17.2369 36.6482 14.541C36.5348 12.6885 35.7089 11.0017 34.1065 9.98966C30.7417 7.86669 25.792 10.5713 26.7255 14.6747C27.8655 19.6885 34.8161 18.0831 33.8505 13.6307C33.4027 11.5543 30.7097 11.6764 29.9361 12.4267C28.8775 13.4504 28.546 15.1401 31.2739 15.3349" fill="#222B3C"/>
<path d="M3.70147 35.035H3.82652C4.27824 35.0746 4.70198 35.2706 5.02474 35.5891C5.3475 35.9076 5.54906 36.3287 5.5947 36.7799C5.47138 36.7699 5.34735 36.7867 5.23118 36.8293C5.1737 36.852 5.12495 36.8925 5.09201 36.9448C5.05906 36.997 5.04364 37.0585 5.04796 37.1201C5.08286 37.3033 5.33878 37.3557 5.51036 37.315C5.68379 37.2459 5.87214 37.2228 6.0571 37.2481C6.36828 37.3528 6.42062 37.8297 6.72889 37.9431C6.91073 37.9709 7.09647 37.958 7.27272 37.9053C7.45573 37.8871 7.63999 37.9245 7.80137 38.0127C7.96275 38.1009 8.09373 38.2358 8.17717 38.3997C8.20936 38.4561 8.21971 38.5223 8.20625 38.5858C8.17669 38.6465 8.12889 38.6963 8.06956 38.7284C7.76102 38.9535 7.52946 39.2683 7.4065 39.6299C7.3797 39.6892 7.37356 39.7557 7.38905 39.8189C7.43558 39.9614 7.64497 39.976 7.76421 39.8858C7.8702 39.7814 7.95424 39.6568 8.0114 39.5194C8.12939 39.3144 8.29867 39.1436 8.50262 39.0238C8.70656 38.9039 8.93816 38.8392 9.17467 38.836C9.26305 38.8465 9.35263 38.8324 9.4335 38.7952C9.60218 38.6905 9.50912 38.3968 9.32299 38.3241C9.1271 38.2755 8.92019 38.3004 8.74135 38.3939C8.60457 38.0455 8.34745 37.7578 8.01664 37.5827C7.68582 37.4077 7.30323 37.3571 6.93828 37.44C6.93828 37.44 6.26358 36.7886 6.21414 36.7188C6.03325 36.3948 5.87298 36.0597 5.73429 35.7155C5.55013 35.3771 5.28352 35.0906 4.95918 34.8827C4.63484 34.6748 4.26326 34.5521 3.87887 34.526C3.76373 34.5107 3.64661 34.5289 3.54152 34.5784C3.49055 34.6053 3.45017 34.6487 3.42695 34.7015C3.40372 34.7543 3.399 34.8134 3.41356 34.8692C3.45718 34.9797 3.57642 35.0146 3.70438 35.0291" fill="#222B3C"/>
<path d="M36.7851 33.6507C36.3424 33.3426 35.812 33.1855 35.2729 33.2028C34.8529 33.2323 34.439 33.3194 34.0427 33.4617C33.8938 33.4957 33.7577 33.5713 33.6501 33.6798C33.6019 33.7372 33.5778 33.8109 33.5826 33.8857C33.5875 33.9605 33.6211 34.0305 33.6763 34.0811C33.7374 34.105 33.8032 34.1148 33.8686 34.1098C33.9341 34.1048 33.9976 34.085 34.0544 34.052C34.5889 33.822 35.1755 33.7396 35.7527 33.8135C36.0401 33.8543 36.3142 33.9612 36.5533 34.1257C36.7925 34.2902 36.9903 34.5078 37.1312 34.7616C36.8518 34.9394 36.6121 35.173 36.4274 35.4479C36.3315 35.5875 36.2588 35.7882 36.3722 35.9103C36.4208 35.9514 36.4816 35.9753 36.5452 35.9784C36.6087 35.9816 36.6716 35.9638 36.7241 35.9278C36.8267 35.8468 36.9143 35.7483 36.9829 35.637C37.3407 35.1746 37.8419 34.8442 38.4079 34.6976C38.6077 34.6377 38.8185 34.6238 39.0244 34.6569C39.2658 34.7035 39.3763 34.8692 39.5857 34.9477C39.6333 34.9649 39.6848 34.9682 39.7342 34.9573C39.7836 34.9463 39.8289 34.9216 39.8648 34.886C39.9007 34.8504 39.9258 34.8053 39.9372 34.756C39.9485 34.7067 39.9456 34.6552 39.9289 34.6075C39.8565 34.4535 39.7272 34.3336 39.5683 34.273C39.3312 34.1673 39.0746 34.1127 38.8151 34.1127C38.5555 34.1127 38.2989 34.1673 38.0618 34.273L37.8495 34.3574C37.8039 34.3802 37.7547 34.395 37.7041 34.401C37.3202 34.4388 37.0556 33.8194 36.7851 33.6332" fill="#222B3C"/>
<path fill-rule="evenodd" clip-rule="evenodd" d="M5.25172 43.6635L12.656 33.8717C13.2143 33.1563 12.9933 33.2377 13.8745 33.4762L17.2247 34.3777C17.9983 34.5871 17.8064 34.6045 18.3589 34.0171L25.0477 27.0869C25.6701 26.4413 25.4665 26.4471 26.1034 27.0869L29.0116 29.9951C29.5438 30.5302 29.3664 30.5476 29.9567 30.1143C30.8088 29.4891 30.6693 29.268 31.3003 29.9834L36.2937 35.6399C36.727 36.1313 36.5845 36.1081 37.1254 35.7678L43.3751 31.9319C43.9567 31.5713 43.7764 31.5888 44.3086 32.0337L48.6215 35.6428C49.2031 36.1313 49.017 36.1313 49.6073 35.6428L50.5874 34.8488C51.4599 34.1247 51.201 34.1916 52.0968 34.9826L57.6223 39.8771C60.0332 42.003 60.481 42.224 57.4391 40.3424L52.0124 36.9805C51.1603 36.4571 51.1545 36.2797 51.4948 37.2481L52.3876 39.8044C52.8267 41.0607 52.6551 41.0665 51.4017 39.9469L44.3435 33.5489C43.7386 33.0021 43.8957 32.8916 43.2704 33.3075L38.9081 36.2157C38.5272 36.4687 38.6028 36.3814 38.754 36.838L40.2285 41.2876C40.7054 42.7242 41.0195 43.0761 39.8446 41.7441L31.2538 32.0192C30.6722 31.3765 30.8845 31.455 30.1138 31.8999C29.1977 32.4321 29.4653 32.3943 28.6597 31.6353L25.9115 29.0179C25.3473 28.4799 25.4898 28.4363 25.1466 29.1023L17.565 44.0445C16.5355 46.0802 16.8001 45.5917 16.931 43.6228L17.4108 36.4629C17.4428 35.9976 17.5272 36.0732 17.0997 35.9336L14.1682 34.9681C13.3365 34.6947 13.5459 34.6104 12.9642 35.2589L5.3128 43.7304C4.40544 44.7279 4.44034 44.6959 5.25172 43.6635Z" fill="#222B3C"/>
<path d="M4.40568 28.9975C4.62939 28.9479 4.84834 28.8788 5.06002 28.791C6.22785 28.4029 7.47649 28.3247 8.68362 28.5642C9.59948 28.7782 10.4442 29.2261 11.1352 29.8641C11.3533 30.0619 11.8361 30.3556 11.8739 30.6784C11.903 30.946 11.5831 31.042 11.4028 31.1263C11.1119 31.263 10.3849 31.5364 10.3413 31.929C10.3209 32.1035 10.5274 32.2198 10.7019 32.2198C11.0247 32.1762 11.3301 31.8214 11.6063 31.6614C12.3201 31.25 13.1294 31.0335 13.9532 31.0335C14.7771 31.0335 15.5864 31.25 16.3001 31.6614C17.0272 32.0744 17.571 32.7316 18.4667 32.3274C18.8239 32.1672 19.2096 32.0802 19.6009 32.0715C19.9645 32.0715 20.3396 32.2401 20.6828 32.2111C20.731 32.2115 20.7786 32.1999 20.8213 32.1774C20.864 32.1549 20.9003 32.1221 20.9272 32.082C20.954 32.0419 20.9704 31.9957 20.975 31.9477C20.9795 31.8997 20.9721 31.8512 20.9532 31.8068C20.8747 31.6265 20.6363 31.58 20.4618 31.5538C19.9432 31.4723 19.4136 31.4931 18.903 31.6149C18.2079 31.7806 17.5245 31.8068 16.9283 31.3648C16.2507 30.8704 15.4597 30.5544 14.6279 30.4458C14.3088 30.4046 13.9868 30.391 13.6653 30.4051C13.3694 30.457 13.07 30.4862 12.7696 30.4923C12.4381 30.4574 12.2839 30.2015 12.0833 29.9805C11.8294 29.6617 11.5439 29.3694 11.2312 29.108C10.2556 28.3886 9.0981 27.9564 7.88968 27.8604C6.67802 27.7569 5.45909 27.9423 4.33297 28.4013C4.11486 28.4915 3.76878 28.6921 4.04215 28.9132C4.09249 28.9505 4.14989 28.9773 4.21089 28.9918C4.27188 29.0063 4.33518 29.0082 4.39695 28.9975" fill="#222B3C"/>
<path d="M47.0451 34.3661C47.0095 34.372 46.9731 34.372 46.9375 34.3661C46.5798 34.2672 47.0015 33.9822 47.1353 33.9357C47.7301 33.7439 48.3616 33.6939 48.9792 33.7899C49.5968 33.8858 50.1834 34.125 50.692 34.4882C50.7441 34.5344 50.8072 34.5665 50.8752 34.5813C50.9647 34.5784 51.0507 34.5457 51.1195 34.4882C51.9101 33.9721 52.8164 33.6603 53.7572 33.5809C53.8017 33.5771 53.8435 33.5578 53.8753 33.5265C53.9072 33.4952 53.9271 33.4537 53.9317 33.4093C53.9739 32.8624 54.1528 32.3349 54.4518 31.8751C54.7508 31.4153 55.1604 31.0378 55.6431 30.7774C56.1258 30.5169 56.6662 30.3818 57.2147 30.3843C57.7632 30.3869 58.3023 30.527 58.7825 30.7919C58.8611 30.8356 58.9483 30.8966 58.9454 30.9926C58.9411 31.0315 58.9239 31.0679 58.8965 31.0959C58.8691 31.1238 58.833 31.1418 58.7942 31.1467C58.677 31.1557 58.5602 31.125 58.4626 31.0595C58.0394 30.851 57.5714 30.7496 57.0998 30.7645C56.6282 30.7793 56.1675 30.9097 55.7581 31.1444C55.3488 31.3791 55.0034 31.7108 54.7524 32.1103C54.5014 32.5098 54.3523 32.9649 54.3185 33.4355C54.3143 33.4869 54.3301 33.538 54.3626 33.578C54.3951 33.6181 54.4418 33.6441 54.493 33.6507L54.8914 33.703C54.9242 33.7019 54.9568 33.7094 54.9858 33.7247C55.0149 33.74 55.0395 33.7626 55.0572 33.7903C55.0723 33.8243 55.0754 33.8624 55.0659 33.8984C55.0564 33.9344 55.0348 33.966 55.0048 33.988C54.9515 34.0199 54.8924 34.0406 54.831 34.0491C54.7695 34.0576 54.707 34.0537 54.6471 34.0375C53.7672 33.9401 52.8769 34.0675 52.0596 34.4078C51.2422 34.748 50.5246 35.29 49.9736 35.9831C49.9097 36.0674 49.8282 36.1605 49.7206 36.1372C49.6845 36.1258 49.6527 36.1034 49.6298 36.0732C49.6069 36.043 49.5939 36.0064 49.5927 35.9685C49.6027 35.8586 49.6511 35.7556 49.7294 35.6777C49.9501 35.4056 50.1943 35.1536 50.4593 34.9245C50.4683 34.918 50.4757 34.9095 50.4807 34.8996C50.4858 34.8898 50.4884 34.8789 50.4884 34.8678C50.4884 34.8567 50.4858 34.8458 50.4807 34.8359C50.4757 34.826 50.4683 34.8175 50.4593 34.8111C50.0006 34.4741 49.4672 34.2532 48.9045 34.1671C48.3419 34.081 47.7668 34.1323 47.2283 34.3167C47.1689 34.3395 47.1076 34.357 47.0451 34.369" fill="#222B3C"/>
<path d="M43.7733 24.7516C43.718 24.5625 43.4825 24.548 43.3196 24.5625H43.2905C43.0458 24.5729 42.8064 24.6375 42.5896 24.7516C42.4559 24.833 42.389 24.7283 42.2668 24.6847C42.173 24.6494 42.0754 24.625 41.976 24.612C41.7767 24.5898 41.5752 24.624 41.3944 24.7109C41.31 24.7516 41.2635 24.8301 41.3624 24.8824C41.4345 24.9104 41.5129 24.9185 41.5892 24.9057C41.7199 24.8763 41.8562 24.8854 41.9818 24.9319C42.1039 25.0043 42.2131 25.0967 42.3046 25.2052C42.3358 25.2373 42.3731 25.2629 42.4143 25.2803C42.4555 25.2977 42.4998 25.3067 42.5446 25.3067C42.5893 25.3067 42.6336 25.2977 42.6748 25.2803C42.716 25.2629 42.7533 25.2373 42.7845 25.2052C42.9139 25.0579 43.0872 24.9559 43.2789 24.9144C43.3487 24.8941 43.7965 24.8417 43.7733 24.7487" fill="#222B3C"/>
<path d="M12.6092 21.1832C12.5569 20.9942 12.3184 20.9767 12.1585 20.9913H12.1294C11.8836 21.003 11.6433 21.0686 11.4256 21.1832C11.2947 21.2617 11.2278 21.157 11.1057 21.1134C11.0118 21.079 10.9142 21.0556 10.8149 21.0436C10.6155 21.0179 10.4129 21.0523 10.2332 21.1425C10.1489 21.1832 10.1024 21.2588 10.2013 21.3141C10.2736 21.3414 10.352 21.3484 10.4281 21.3344C10.5582 21.3075 10.6932 21.3175 10.8178 21.3635C10.9409 21.4357 11.051 21.5282 11.1435 21.6369C11.1749 21.6686 11.2122 21.6938 11.2534 21.711C11.2946 21.7282 11.3388 21.7371 11.3834 21.7371C11.4281 21.7371 11.4722 21.7282 11.5134 21.711C11.5546 21.6938 11.592 21.6686 11.6234 21.6369C11.7525 21.4892 11.9259 21.3872 12.1177 21.3461C12.1846 21.3286 12.6354 21.2734 12.6092 21.1832Z" fill="#222B3C"/>
<path d="M21.1707 26.8251C21.1184 26.6361 20.8799 26.6186 20.72 26.6361H20.6909C20.4453 26.6469 20.205 26.7114 19.9871 26.8251C19.8562 26.9036 19.7864 26.8019 19.6643 26.7553C19.5705 26.7204 19.4729 26.6969 19.3735 26.6855C19.1741 26.6598 18.9715 26.6942 18.7918 26.7844C18.7075 26.8251 18.661 26.9007 18.7598 26.956C18.8322 26.9833 18.9106 26.9904 18.9867 26.9764C19.1167 26.9494 19.2518 26.9595 19.3764 27.0054C19.4989 27.0786 19.6088 27.1709 19.7021 27.2788C19.7333 27.3109 19.7706 27.3364 19.8118 27.3538C19.853 27.3713 19.8973 27.3803 19.942 27.3803C19.9868 27.3803 20.0311 27.3713 20.0723 27.3538C20.1135 27.3364 20.1508 27.3109 20.1819 27.2788C20.3111 27.1311 20.4845 27.0291 20.6763 26.988C20.7432 26.9705 21.194 26.9153 21.1678 26.8251" fill="#222B3C"/>
<path fill-rule="evenodd" clip-rule="evenodd" d="M47.0686 34.6307C47.0121 34.4417 46.9798 34.2463 46.9726 34.0491C46.9494 33.5314 46.708 32.8131 46.7429 32.3275C46.7803 31.8678 46.878 31.4151 47.0337 30.981C47.2304 30.6902 47.4651 30.4271 47.7317 30.1987C47.939 29.9462 48.1014 29.6599 48.2115 29.3524C48.2697 29.3087 48.3169 29.2521 48.3492 29.1869C48.3815 29.1218 48.3981 29.05 48.3976 28.9772C48.3976 28.7649 48.3569 28.8551 48.3395 28.9772C48.3162 29.1372 48.1505 29.2826 48.1475 29.0732C48.1475 28.9569 48.1097 28.9511 48.1097 28.9511C48.0843 29.2331 47.9596 29.4969 47.7578 29.6955C47.6444 29.777 47.6183 29.7799 47.4816 30.03C47.3449 30.2801 46.8796 30.2597 46.865 30.1463C46.8505 30.0329 46.9465 29.9951 47.0279 29.8119C47.0522 29.7668 47.0663 29.7169 47.0693 29.6658C47.0723 29.6146 47.0641 29.5635 47.0452 29.5158C47.0264 29.4682 46.9974 29.4252 46.9602 29.39C46.9231 29.3547 46.8787 29.328 46.8301 29.3117C46.6004 29.2593 46.5102 29.3698 46.455 29.5414C46.4331 29.7083 46.452 29.8779 46.5102 30.0358C46.5248 30.1172 46.4928 30.1376 46.4201 30.187C46.3474 30.2365 45.9199 30.0794 45.8384 30.0009C45.757 29.9224 45.6029 29.8177 45.4429 29.6694C45.3361 29.5495 45.2215 29.4368 45.0998 29.332C45.0854 29.2297 45.0518 29.1311 45.0009 29.0412C44.934 28.9278 44.9456 29.0063 44.9631 29.0412C45.0154 29.1634 44.8526 29.2012 44.7653 29.0412C44.745 29.0005 44.6897 28.922 44.7159 29.0412C44.7561 29.1921 44.8341 29.3303 44.9427 29.4425C45.1144 29.7757 45.3589 30.066 45.6581 30.2917C45.7397 30.3271 45.8058 30.3906 45.8442 30.4708C45.8827 30.5509 45.891 30.6422 45.8675 30.728C45.8111 31.057 45.7742 31.3891 45.757 31.7226C45.757 31.7226 45.6116 32.121 45.5709 32.2751C45.5302 32.4292 45.4836 33.3191 45.4633 33.5111L45.9053 33.8281C45.9462 33.4326 46.0291 33.0427 46.1525 32.6648L46.2456 33.2901C46.2935 33.373 46.3233 33.4652 46.3328 33.5605C46.3648 33.7466 46.4143 33.7234 46.4724 33.9619L46.551 34.2905L47.0686 34.6307Z" fill="#222B3C"/>
<path fill-rule="evenodd" clip-rule="evenodd" d="M22.2498 63.0901C17.2855 63.0901 13.2489 63.1105 13.1849 63.1483L10.6432 65.3091C10.3524 65.5999 9.73874 66.2019 9.50608 66.0594C9.27343 65.9169 9.33741 65.7308 9.53807 65.5417C10.0412 65.12 12.1554 63.3809 12.3154 63.0988C11.4429 63.0523 10.4076 63.0988 9.50608 63.0988C7.96765 63.0988 8.16832 62.9127 7.29877 63.7096L5.05656 65.6842C4.88789 65.8238 4.45457 66.2949 4.2539 66.0128C4.12013 65.6842 4.28589 65.6377 4.45457 65.4952C4.62324 65.3527 4.74539 65.2044 4.92279 65.0735C5.2136 64.8379 5.48988 64.6024 5.79524 64.3203C6.08606 64.0876 6.33035 63.8521 6.6677 63.57C7.30459 63.0058 7.26969 63.1483 7.33658 62.5841L4.46038 60.0947C4.16957 59.8591 4.29171 59.484 4.62615 59.577C5.03163 59.8842 5.41997 60.2133 5.78942 60.5629L8.09852 62.5841C8.18868 62.6103 14.5692 62.6074 22.2468 62.5986V62.5841H40.7458V62.5986C48.4234 62.5986 54.804 62.5986 54.8941 62.5841L57.2032 60.5629C57.5727 60.2133 57.961 59.8842 58.3665 59.577C58.7009 59.484 58.8347 59.8679 58.5323 60.0947L55.6561 62.5841C55.723 63.1483 55.6881 63.0058 56.3249 63.57C56.6594 63.8608 56.9066 64.0876 57.1974 64.3203C57.4882 64.6111 57.779 64.8379 58.0699 65.0735C58.2385 65.2131 58.3607 65.3643 58.5381 65.4952C58.7155 65.6261 58.8725 65.6842 58.7387 66.0128C58.5381 66.3037 58.1048 65.8238 57.9361 65.6842L55.6997 63.6892C54.8272 62.8924 55.0308 63.0785 53.4924 63.0785C52.5908 63.0785 51.5526 63.032 50.6831 63.0785C50.8517 63.3693 52.9573 65.0997 53.4604 65.5214C53.661 65.7104 53.693 65.8994 53.4924 66.039C53.2917 66.1786 52.6577 65.5708 52.3553 65.2887L49.8135 63.1279C49.7495 63.0901 45.713 63.0756 40.7487 63.0698H22.2498" fill="#222B3C"/>
<path fill-rule="evenodd" clip-rule="evenodd" d="M53.9468 49.9191H56.1541C56.0792 49.9927 55.9974 50.0589 55.9098 50.1168C55.8487 50.1473 55.7943 50.1899 55.7499 50.2419C55.5231 50.4542 55.4591 50.4047 55.3253 50.5327C55.1915 50.6606 55.2933 50.4803 54.985 50.7653C54.8454 50.8904 54.5779 50.9951 54.5633 51.2103C54.5474 51.288 54.5586 51.3688 54.5952 51.4392C54.6317 51.5096 54.6913 51.5654 54.764 51.5971C54.8541 51.6164 54.9473 51.6164 55.0374 51.5971C55.145 51.568 55.0607 51.568 55.2119 51.4808C55.3631 51.3935 55.3253 51.3848 55.3776 51.3615C55.494 51.3092 55.4765 51.3615 55.587 51.2626C55.6403 51.2192 55.6978 51.1812 55.7586 51.1492C55.8155 51.1111 55.8699 51.0693 55.9215 51.0242C55.9796 50.9835 56.0436 50.9602 56.0989 50.9137C56.1541 50.8671 56.1221 50.8788 56.1745 50.8497L56.4333 50.6926C56.4837 50.6474 56.5372 50.6056 56.5933 50.5676C56.627 50.5554 56.6584 50.5377 56.6863 50.5152C56.7133 50.4942 56.7414 50.4748 56.7707 50.4571C56.7999 50.4394 56.8281 50.4199 56.855 50.3989C56.887 50.3727 56.8986 50.3553 56.9306 50.3291C57.0091 50.2709 57.0673 50.2709 57.1138 50.2273C57.361 50.0063 57.2534 50.1982 57.4366 49.9772C57.4808 49.9249 57.5328 49.8798 57.5908 49.8434C57.6809 49.7795 57.6751 49.8056 57.7275 49.6922C57.7645 49.6225 57.773 49.5411 57.7513 49.4652C57.7296 49.3893 57.6794 49.3247 57.6111 49.2851C57.5787 49.2581 57.541 49.2379 57.5005 49.2259C57.46 49.2139 57.4175 49.2103 57.3756 49.2153C56.5816 49.2153 48.84 49.1978 48.7412 49.2153C48.6938 49.2354 48.6504 49.264 48.6132 49.2996C48.5825 49.3442 48.559 49.3932 48.5434 49.445C48.4998 49.5381 48.5114 49.5962 48.5783 49.7358C48.6469 49.8162 48.7416 49.8698 48.8459 49.8871C49.1163 49.9074 50.1894 49.8871 50.5471 49.8871H53.9468" fill="#313644"/>
<path fill-rule="evenodd" clip-rule="evenodd" d="M40.766 49.8231C40.9318 49.8231 40.8503 49.8783 40.9667 49.8929H45.6198C45.867 49.8929 46.4311 49.9743 46.3526 49.5003C46.3352 49.4014 46.3235 49.3694 46.2596 49.3229C46.152 49.2414 46.1607 49.2385 46.0502 49.2385C45.8611 49.2385 45.6663 49.2385 45.4685 49.2385H41.3971C41.1877 49.2385 40.923 49.2065 40.7922 49.3025C40.7257 49.3679 40.6871 49.4565 40.6846 49.5497C40.6846 49.698 40.7456 49.6922 40.7631 49.8231" fill="#313644"/>
<path d="M50.8723 59.5363C49.8661 59.3822 48.5254 59.2862 47.5076 59.1903C47.5076 58.2073 47.5454 57.1051 47.5454 56.0872C48.2986 56.0872 49.6742 55.9215 50.4303 55.8488L50.3111 55.3224C49.6044 55.2497 48.2492 55.1537 47.5308 55.0723C47.5308 54.1475 47.461 53.5251 47.4232 52.6032C48.3219 52.5073 50.2994 52.3997 51.1835 52.2455L51.0643 51.7191C50.1191 51.5621 47.6646 51.6464 46.702 51.5505C46.4519 53.877 46.6555 57.4192 46.4112 60.0627C46.8016 60.1327 47.1984 60.161 47.5948 60.1471C48.6476 60.1471 50.0493 60.0627 50.9828 60.0627L50.8723 59.5363ZM41.5458 55.9564C41.7595 55.9243 41.9753 55.9088 42.1914 55.9098C43.7473 55.9098 44.7186 56.7823 44.7186 57.8234C44.7186 58.818 44.2039 59.3822 43.0784 59.3822C42.6058 59.378 42.1339 59.3459 41.665 59.2862C41.6156 58.1957 41.5865 57.0353 41.5458 55.9564ZM40.8158 51.4749C40.6704 54.0922 40.7315 57.3058 40.6472 59.9086C40.778 60.1471 41.7726 60.3157 42.7672 60.3157C44.5499 60.3157 45.6987 59.6323 45.6987 57.9456C45.6987 56.4478 44.3347 55.0374 42.1914 55.0374C41.9549 55.0354 41.7186 55.052 41.4847 55.0868C41.4382 53.973 41.412 52.7021 41.3422 51.597L40.8158 51.4749ZM38.8644 51.7395C38.7917 52.8039 38.7539 54.2522 38.7307 55.3078C38.3252 55.5154 37.8799 55.6334 37.4249 55.6539C36.2296 55.6539 35.8574 54.4441 35.8574 52.7457C35.8574 52.42 35.8574 52.0739 35.8923 51.7162L35.3659 51.5941C35.2308 52.2409 35.1587 52.8993 35.1507 53.56C35.1507 55.4503 35.8923 56.5642 37.4394 56.5642C37.8693 56.5529 38.2957 56.4845 38.7074 56.3606C38.6841 57.4744 38.6725 58.4923 38.6347 59.5945C38.668 59.7473 38.7486 59.8857 38.865 59.9901C38.9814 60.0945 39.1277 60.1596 39.2832 60.1761C39.449 60.1761 39.606 60.0831 39.6904 59.8184C39.6904 59.0041 39.449 52.6934 39.3996 51.8558L38.8644 51.7395ZM34.3597 59.5451C33.3563 59.3909 32.0128 59.295 30.9949 59.199C30.9949 58.216 31.0327 57.1138 31.0327 56.096C31.7859 56.096 33.1644 55.9302 33.9176 55.8575L33.7984 55.3311C33.0917 55.2584 31.7394 55.1624 31.0211 55.081C31.0211 54.1562 30.9484 53.5338 30.9135 52.612C31.8092 52.516 33.7868 52.4084 34.6708 52.2542L34.5516 51.7279C33.6064 51.5708 31.1519 51.6552 30.1893 51.5592C29.9363 53.8857 30.1399 57.4279 29.8985 60.0714C30.289 60.1414 30.6857 60.1697 31.0821 60.1558C32.1378 60.1558 33.5367 60.0714 34.4731 60.0714L34.3597 59.5451ZM24.5911 52.737C25.0013 52.3955 25.5119 52.1974 26.0452 52.1728C27.2666 52.1728 28.0809 53.4292 28.0809 54.639C28.0809 55.8488 27.2084 56.7358 26.1528 56.7358C25.6368 56.7345 25.1285 56.6109 24.6696 56.3751L24.5911 52.737ZM23.9542 51.6697C23.8233 54.4121 23.8466 57.1429 23.7652 59.8853C23.7975 60.0381 23.8774 60.1766 23.9934 60.2811C24.1094 60.3856 24.2555 60.4507 24.4108 60.467C24.5794 60.467 24.7336 60.371 24.8179 60.1093C24.783 59.2368 24.7452 58.3382 24.7219 57.4512C25.2134 57.4977 25.8241 57.5937 26.4087 57.5937C28.2176 57.5937 28.9475 56.1803 28.9475 54.5895C28.9475 52.7079 28.1478 51.501 26.3622 51.501C25.7116 51.4801 25.0672 51.6326 24.4951 51.9431C24.4951 51.8936 24.4951 51.5825 24.4951 51.5243L23.9542 51.6697ZM20.1241 52.7719C20.3742 54.1737 21.0227 55.6801 21.6218 56.9742C21.142 56.9277 20.6389 56.9161 20.1357 56.9161H18.8183C19.2866 55.7063 19.9089 54.0282 20.1241 52.7719ZM19.717 51.5854C18.9259 54.3772 17.7161 56.9393 16.9862 59.6207C16.9698 59.798 17.0232 59.9747 17.1351 60.1132C17.247 60.2517 17.4085 60.3411 17.5853 60.3623C17.6623 60.3603 17.7378 60.3409 17.8063 60.3057C17.8748 60.2704 17.9344 60.2202 17.9808 60.1587C18.2454 59.3706 18.4228 58.2567 18.7107 57.4773C19.9438 57.6082 20.4556 57.6809 21.7294 57.8496C22.01 58.517 22.2375 59.2054 22.4099 59.9086C22.4826 60.2198 22.7008 60.3739 22.8782 60.3739C23.0556 60.3739 23.2853 60.1849 23.2853 59.705C22.5902 56.951 21.2496 54.4354 20.604 51.6464L19.717 51.5854ZM12.2342 52.7486C12.7445 52.4951 13.3047 52.358 13.8744 52.3473C14.6393 52.3473 15.2733 52.6381 15.2733 53.4495C15.2733 54.9443 14.11 54.8018 12.9991 54.9036C13.0353 55.1971 13.0877 55.4883 13.1561 55.7761C13.3335 55.7761 13.4905 55.7528 13.6447 55.7528C14.9999 55.7528 15.6339 56.602 15.6339 57.742C15.6339 58.9634 15.0232 59.4287 14.2438 59.4287C13.3647 59.363 12.5355 58.9951 11.8969 58.3876C11.574 58.5679 11.7311 58.5563 11.5508 58.722C11.9812 59.705 13.1299 60.1761 14.1856 60.1761C15.9305 60.1761 16.5121 59.0885 16.5121 57.5297C16.5121 56.5118 16.1632 55.5434 15.3489 55.4009C15.6138 55.2203 15.8271 54.9738 15.9679 54.6857C16.1086 54.3976 16.1719 54.0778 16.1515 53.7578C16.1515 52.5393 15.3721 51.5447 14.1623 51.5447C13.3352 51.5899 12.5377 51.8681 11.862 52.3473L12.2342 52.7486Z" fill="#222B3C"/>
<path d="M31.4922 65.7599C32.2279 65.85 32.6147 66.6323 32.6147 67.4583C32.6147 68.0166 32.3239 69.2032 31.6143 69.2032C31.1461 69.2032 30.7099 68.5808 30.7099 67.9963C30.7099 67.4961 30.8669 65.8209 31.4922 65.7482M30.1282 67.8828C30.1282 68.8745 30.6546 69.6859 31.6725 69.8197C32.795 69.7354 33.1266 68.447 33.1266 67.5688C33.1266 66.5451 32.5275 65.3295 31.4282 65.3295C30.4249 65.3411 30.1282 67.1791 30.1282 67.8945V67.8828ZM26.5744 67.1994L29.3168 67.3826C29.5379 67.3565 29.6367 67.2343 29.6367 67.0918C29.6242 66.9726 29.569 66.862 29.4814 66.7802C29.3938 66.6985 29.2796 66.6511 29.1598 66.6469L26.493 66.8272L26.5744 67.1994ZM24.3497 65.7453C25.0883 65.8355 25.4751 66.6178 25.4751 67.4437C25.4751 68.0021 25.1843 69.1886 24.4747 69.1886C24.0065 69.1886 23.5703 68.5663 23.5703 67.9817C23.5703 67.4815 23.7273 65.8064 24.3497 65.7337M22.9886 67.8683C22.9886 68.86 23.515 69.6714 24.5329 69.8052C25.6554 69.7208 25.987 68.4325 25.987 67.5542C25.987 66.5305 25.3879 65.3149 24.2886 65.3149C23.2853 65.3411 22.9886 67.1791 22.9886 67.8945V67.8683ZM22.6367 69.3776C22.5779 69.3932 22.5173 69.4011 22.4564 69.4009C21.5607 69.4009 21.6916 67.6124 20.7988 67.4001C21.4386 67.2605 21.4298 65.5767 22.3808 65.5767C22.4243 65.5726 22.4682 65.5726 22.5117 65.5767L22.5466 65.2858C22.4011 65.2318 22.248 65.2013 22.0929 65.1957C21.078 65.1957 21.1914 66.8853 20.3131 67.0424C20.3196 66.5051 20.2924 65.968 20.2317 65.4342L19.8711 65.3033C19.8123 65.7632 19.787 66.2269 19.7954 66.6905C19.7954 67.8712 19.7954 68.5517 19.7635 69.2264C19.7855 69.3314 19.8401 69.4266 19.9194 69.4987C19.9988 69.5708 20.0989 69.6159 20.2055 69.6278C20.3218 69.6278 20.4294 69.5609 20.4963 69.3806C20.4556 68.8658 20.4149 68.3394 20.3829 67.8218C20.422 67.8071 20.4633 67.7992 20.505 67.7985C21.1361 67.7985 21.3019 69.7499 22.3925 69.7499C22.4908 69.7496 22.5886 69.7359 22.6833 69.7092L22.6367 69.3776ZM18.5653 67.9672C18.5694 68.0292 18.5694 68.0913 18.5653 68.1533C18.5653 68.7698 18.3588 69.2788 17.6928 69.2788C17.402 69.2788 16.8873 69.0752 16.5296 69.0752C16.3987 69.0752 16.3318 69.1712 16.2998 69.526C16.7215 69.6649 17.1617 69.7394 17.6056 69.747C18.8939 69.747 19.0975 69.0316 19.0975 67.9323C19.0975 66.5538 18.7689 65.4138 17.3002 65.4138C16.9886 65.3995 16.6784 65.4646 16.3987 65.6028L16.4394 65.946C16.6318 65.9156 16.8262 65.8991 17.021 65.8966C17.9895 65.8966 18.3035 66.5538 18.4751 67.3739C17.9982 67.3739 17.5561 67.3245 17.1199 67.3012L17.0966 67.6938C17.5327 67.8244 17.9809 67.9102 18.4344 67.9497L18.5653 67.9672Z" fill="#222B3C"/>
<path d="M33.1236 65.9228L34.6736 65.9984C34.5777 67.0977 34.5108 68.2057 34.4439 69.305C34.4661 69.4059 34.5193 69.4974 34.5959 69.5667C34.6725 69.636 34.7688 69.6798 34.8714 69.6918C34.9403 69.693 35.0073 69.6696 35.0605 69.6259C35.1138 69.5823 35.1498 69.5211 35.1622 69.4534C35.104 68.3046 35.1622 67.1646 35.0895 66.0217L36.5901 66.0973C36.8111 66.0711 36.91 65.9577 36.91 65.8269C36.8964 65.7104 36.8418 65.6027 36.756 65.5228C36.6703 65.4429 36.5589 65.396 36.4418 65.3906C35.3192 65.4488 34.1928 65.5089 33.0625 65.5709L33.1236 65.9228Z" fill="#222B3C"/>
<path d="M44.5559 67.499C44.6972 67.4751 44.8401 67.4615 44.9834 67.4583C45.7453 67.4583 46.1001 67.8945 46.1001 68.3307C46.0958 68.4563 46.0661 68.5798 46.0127 68.6936C45.9594 68.8074 45.8836 68.9092 45.7898 68.9929C45.6961 69.0766 45.5863 69.1405 45.4672 69.1806C45.3481 69.2207 45.2221 69.2363 45.0968 69.2264C44.8888 69.2248 44.6829 69.1854 44.489 69.1101L44.5559 67.499ZM43.9742 65.5388C43.9742 65.8093 43.951 66.0972 43.951 66.3909C43.951 67.4495 44.0004 68.4528 44.0004 69.4445C44.0324 69.6743 45.091 69.7063 45.2073 69.7063C45.9867 69.7063 46.6759 69.2061 46.6759 68.4441C46.666 68.0299 46.4931 67.6363 46.1947 67.3488C45.8963 67.0613 45.4966 66.9031 45.0823 66.9086C44.8758 66.9108 44.6709 66.9442 44.4744 67.0075C44.4279 66.548 44.3785 66.0885 44.3349 65.6203L43.9742 65.5388ZM39.7079 70.3228C41.7437 69.9622 41.2987 67.2867 41.4528 65.882C41.8396 65.8326 41.988 65.882 42.587 65.7919C42.587 66.0827 42.587 66.3735 42.587 66.6643C42.587 67.2809 42.587 67.8974 42.587 68.511C42.587 68.8251 42.587 69.1276 42.587 69.4387C42.6085 69.54 42.6614 69.6319 42.7381 69.7014C42.8149 69.7708 42.9116 69.8143 43.0145 69.8255C43.0834 69.8266 43.1504 69.8033 43.2037 69.7596C43.2569 69.7159 43.293 69.6548 43.3054 69.587C43.2152 68.1998 43.2327 66.7719 43.2239 65.3615C43.1018 65.3615 42.9331 65.3615 42.2148 65.3615C41.6332 65.3615 41.0748 65.3614 40.9759 65.4836C40.8953 65.6662 40.8642 65.8668 40.8858 66.0652C40.8858 67.182 40.8858 69.4562 39.5887 69.9709L39.7079 70.3228ZM37.4425 67.1064C37.4933 66.7846 37.6564 66.4913 37.9029 66.2784C38.1493 66.0654 38.4633 65.9467 38.789 65.9431C39.0594 65.9431 39.1496 66.1234 39.2223 66.4433C38.6439 66.7008 38.0494 66.9204 37.4425 67.1005M40.1587 68.8164C39.5679 68.9283 38.9705 69.0021 38.3702 69.0374C37.5326 69.0374 37.4337 68.2638 37.4105 67.6008C38.1637 67.4437 39.8301 67.3885 39.8301 66.3939C39.8241 66.257 39.7911 66.1226 39.733 65.9985C39.6748 65.8744 39.5927 65.7631 39.4913 65.6709C39.3899 65.5787 39.2713 65.5075 39.1423 65.4614C39.0132 65.4152 38.8764 65.3951 38.7395 65.4022C37.4017 65.4022 36.9248 66.2368 36.9248 67.403C36.9248 68.1911 37.1807 69.6103 38.1579 69.6103C38.8652 69.5461 39.5622 69.3977 40.2343 69.1683L40.1587 68.8164Z" fill="#222B3C"/>
<path fill-rule="evenodd" clip-rule="evenodd" d="M9.25962 49.9191H7.05231C7.12719 49.9927 7.209 50.0589 7.29659 50.1168C7.35777 50.1473 7.41217 50.1899 7.45654 50.2419C7.68338 50.4542 7.74736 50.4047 7.88114 50.5327C8.01491 50.6606 7.91313 50.4803 8.2214 50.7653C8.36099 50.8904 8.62854 50.9951 8.64308 51.2103C8.65848 51.288 8.647 51.3686 8.61053 51.4388C8.57407 51.5091 8.51478 51.5649 8.44242 51.5971C8.35232 51.6164 8.25915 51.6164 8.16905 51.5971C8.05854 51.568 8.14578 51.568 7.99456 51.4808C7.84333 51.3935 7.88114 51.3848 7.82879 51.3615C7.71246 51.3092 7.72991 51.3615 7.6194 51.2626C7.56614 51.2192 7.50866 51.1812 7.44782 51.1492C7.39089 51.1111 7.33649 51.0693 7.28496 51.0242C7.2268 50.9835 7.16282 50.9602 7.10756 50.9137C7.05231 50.8671 7.0843 50.8788 7.03195 50.8497L6.77312 50.6926C6.72269 50.6474 6.66925 50.6056 6.61317 50.5676C6.57946 50.5554 6.54801 50.5377 6.52011 50.5152C6.49316 50.4942 6.465 50.4748 6.43577 50.4571C6.40654 50.4394 6.37838 50.4199 6.35143 50.3989C6.31944 50.3727 6.30781 50.3553 6.27582 50.3291C6.1973 50.2709 6.13914 50.2709 6.0926 50.2273C5.84541 50.0063 5.95301 50.1982 5.7698 49.9772C5.72563 49.9249 5.67364 49.8798 5.61566 49.8434C5.52551 49.7795 5.53133 49.8056 5.47898 49.6922C5.44197 49.6225 5.43342 49.5411 5.45511 49.4652C5.4768 49.3893 5.52704 49.3247 5.59531 49.2851C5.62778 49.2581 5.66541 49.2379 5.70591 49.2259C5.74641 49.2139 5.78892 49.2103 5.83087 49.2153C6.6248 49.2153 14.3664 49.1978 14.4653 49.2153C14.5127 49.2354 14.556 49.264 14.5932 49.2996C14.6239 49.3442 14.6475 49.3932 14.663 49.445C14.7066 49.5381 14.695 49.5962 14.6281 49.7358C14.5596 49.8162 14.4648 49.8698 14.3606 49.8871C14.0901 49.9074 13.017 49.8871 12.6593 49.8871H9.25962" fill="#313644"/>
<path fill-rule="evenodd" clip-rule="evenodd" d="M22.4388 49.8231C22.273 49.8231 22.3544 49.8783 22.2381 49.8929H17.585C17.3378 49.8929 16.7736 49.9743 16.8522 49.5003C16.8696 49.4014 16.8812 49.3694 16.9452 49.3229C17.0092 49.2763 17.0441 49.2385 17.1546 49.2385C17.3436 49.2385 17.5385 49.2385 17.7362 49.2385H21.8106C22.02 49.2385 22.2846 49.2065 22.4155 49.3025C22.482 49.3679 22.5206 49.4565 22.5231 49.5497C22.5231 49.698 22.462 49.6922 22.4446 49.8231" fill="#313644"/>
<path fill-rule="evenodd" clip-rule="evenodd" d="M14.1649 10.3765C14.2467 10.3765 14.3267 10.4008 14.3947 10.4463C14.4626 10.4918 14.5156 10.5564 14.5467 10.6321C14.5779 10.7077 14.5859 10.7909 14.5697 10.8711C14.5536 10.9513 14.5139 11.0248 14.4559 11.0825C14.3978 11.1401 14.324 11.1792 14.2437 11.1948C14.1634 11.2104 14.0803 11.2018 14.0049 11.1701C13.9295 11.1384 13.8652 11.085 13.8201 11.0167C13.7751 10.9484 13.7514 10.8683 13.752 10.7865C13.7527 10.6775 13.7966 10.5732 13.8739 10.4964C13.9513 10.4196 14.0559 10.3765 14.1649 10.3765Z" fill="#222B3C"/>
<path fill-rule="evenodd" clip-rule="evenodd" d="M48.8339 12.5634C48.9155 12.5634 48.9954 12.5876 49.0633 12.633C49.1312 12.6783 49.1841 12.7428 49.2154 12.8183C49.2466 12.8937 49.2548 12.9768 49.2389 13.0569C49.223 13.137 49.1836 13.2106 49.1259 13.2683C49.0681 13.3261 48.9945 13.3654 48.9144 13.3813C48.8343 13.3973 48.7513 13.3891 48.6758 13.3578C48.6004 13.3266 48.5359 13.2737 48.4905 13.2057C48.4451 13.1378 48.4209 13.058 48.4209 12.9763C48.4209 12.8668 48.4644 12.7618 48.5419 12.6843C48.6193 12.6069 48.7243 12.5634 48.8339 12.5634Z" fill="#222B3C"/>
</g>
<defs>
<clipPath id="clip0_224_1520">
<rect width="63" height="70.3228" fill="white"/>
</clipPath>
</defs>
</svg>
