<svg width="76" height="76" viewBox="0 0 76 76" fill="none" xmlns="http://www.w3.org/2000/svg">
<circle cx="38" cy="38" r="38" fill="#C49D7F"/>
<g clip-path="url(#clip0_47_1048)">
<path d="M47.3752 42.6875C46.9675 42.6899 46.575 42.5329 46.2815 42.25L39.6565 35.8437C38.6393 34.8708 37.8298 33.7019 37.2767 32.4075C36.7236 31.1131 36.4385 29.7201 36.4385 28.3125C36.4385 26.9049 36.7236 25.5119 37.2767 24.2175C37.8298 22.9231 38.6393 21.7542 39.6565 20.7812C41.7388 18.8017 44.5021 17.6979 47.3752 17.6979C50.2483 17.6979 53.0116 18.8017 55.094 20.7812C56.1112 21.7542 56.9207 22.9231 57.4738 24.2175C58.0268 25.5119 58.312 26.9049 58.312 28.3125C58.312 29.7201 58.0268 31.1131 57.4738 32.4075C56.9207 33.7019 56.1112 34.8708 55.094 35.8437L48.469 42.25C48.1754 42.5329 47.7829 42.6899 47.3752 42.6875ZM47.3752 20.8125C45.3076 20.7998 43.3169 21.5961 41.8284 23.0312C41.1116 23.7115 40.5408 24.5306 40.1508 25.4385C39.7607 26.3465 39.5596 27.3243 39.5596 28.3125C39.5596 29.3007 39.7607 30.2785 40.1508 31.1865C40.5408 32.0944 41.1116 32.9135 41.8284 33.5937L47.3752 38.9531L52.9221 33.5937C53.6389 32.9135 54.2096 32.0944 54.5997 31.1865C54.9897 30.2785 55.1909 29.3007 55.1909 28.3125C55.1909 27.3243 54.9897 26.3465 54.5997 25.4385C54.2096 24.5306 53.6389 23.7115 52.9221 23.0312C51.4317 21.5989 49.4423 20.8031 47.3752 20.8125Z" fill="white"/>
<path d="M30.1875 58.3125C29.9138 58.3144 29.6444 58.2443 29.4063 58.1094L18.4688 51.8594C18.2303 51.7217 18.0325 51.5235 17.8953 51.2848C17.7581 51.046 17.6864 50.7753 17.6875 50.5V22.375C17.6864 22.0997 17.7581 21.8289 17.8953 21.5902C18.0325 21.3515 18.2303 21.1533 18.4688 21.0156C18.7063 20.8785 18.9757 20.8063 19.25 20.8063C19.5243 20.8063 19.7937 20.8785 20.0313 21.0156L30.9688 27.2656C31.2072 27.4033 31.405 27.6015 31.5422 27.8402C31.6794 28.0789 31.7511 28.3497 31.75 28.625V56.75C31.7511 57.0253 31.6794 57.296 31.5422 57.5348C31.405 57.7735 31.2072 57.9717 30.9688 58.1094C30.7306 58.2443 30.4612 58.3144 30.1875 58.3125ZM20.8125 49.5937L28.625 54.0625V29.5312L20.8125 25.0625V49.5937Z" fill="white"/>
<path d="M30.1875 58.3125C29.9138 58.3144 29.6444 58.2443 29.4063 58.1094C29.1678 57.9717 28.97 57.7735 28.8328 57.5348C28.6956 57.296 28.6239 57.0253 28.625 56.75V28.625C28.6239 28.3497 28.6956 28.0789 28.8328 27.8402C28.97 27.6015 29.1678 27.4033 29.4063 27.2656L38.7813 21.9062C38.9605 21.8036 39.1584 21.7374 39.3634 21.7117C39.5683 21.686 39.7764 21.7012 39.9755 21.7564C40.1745 21.8116 40.3607 21.9058 40.5231 22.0334C40.6856 22.1611 40.8211 22.3196 40.9219 22.5C41.1256 22.8588 41.1791 23.2835 41.0708 23.6816C40.9625 24.0798 40.7012 24.4189 40.3438 24.625L31.75 29.5312V54.0625L40.3438 49.1406C40.5223 49.038 40.7193 48.9716 40.9234 48.9451C41.1276 48.9186 41.335 48.9326 41.5338 48.9863C41.7326 49.04 41.9188 49.1323 42.0819 49.258C42.245 49.3837 42.3818 49.5402 42.4844 49.7187C42.587 49.8972 42.6534 50.0942 42.6799 50.2984C42.7064 50.5026 42.6923 50.71 42.6387 50.9088C42.585 51.1076 42.4927 51.2938 42.367 51.4569C42.2413 51.62 42.0848 51.7568 41.9063 51.8594L30.9688 58.1094C30.7306 58.2443 30.4612 58.3144 30.1875 58.3125Z" fill="white"/>
<path d="M52.0625 58.3125C51.7888 58.3144 51.5194 58.2443 51.2813 58.1094L40.3438 51.8594C40.1053 51.7217 39.9075 51.5235 39.7703 51.2848C39.6331 51.0461 39.5614 50.7753 39.5625 50.5V36.4375C39.5625 36.0231 39.7271 35.6257 40.0202 35.3326C40.3132 35.0396 40.7106 34.875 41.125 34.875C41.5394 34.875 41.9368 35.0396 42.2299 35.3326C42.5229 35.6257 42.6875 36.0231 42.6875 36.4375V49.5938L50.5 54.0625V38C50.5 37.5856 50.6646 37.1882 50.9577 36.8951C51.2507 36.6021 51.6481 36.4375 52.0625 36.4375C52.4769 36.4375 52.8743 36.6021 53.1674 36.8951C53.4604 37.1882 53.625 37.5856 53.625 38V56.75C53.6261 57.0253 53.5544 57.2961 53.4172 57.5348C53.28 57.7735 53.0822 57.9717 52.8438 58.1094C52.6056 58.2443 52.3362 58.3144 52.0625 58.3125Z" fill="white"/>
<path d="M47.375 33.3125C46.4479 33.3125 45.5416 33.0376 44.7708 32.5225C43.9999 32.0074 43.3991 31.2754 43.0443 30.4188C42.6895 29.5623 42.5967 28.6198 42.7776 27.7105C42.9584 26.8012 43.4049 25.966 44.0604 25.3104C44.716 24.6549 45.5512 24.2084 46.4605 24.0276C47.3698 23.8467 48.3123 23.9395 49.1688 24.2943C50.0254 24.6491 50.7574 25.2499 51.2725 26.0208C51.7876 26.7916 52.0625 27.6979 52.0625 28.625C52.0625 29.8682 51.5686 31.0605 50.6896 31.9396C49.8105 32.8186 48.6182 33.3125 47.375 33.3125ZM47.375 27.0625C47.066 27.0625 46.7639 27.1541 46.5069 27.3258C46.25 27.4975 46.0497 27.7415 45.9314 28.0271C45.8132 28.3126 45.7822 28.6267 45.8425 28.9298C45.9028 29.2329 46.0516 29.5113 46.2701 29.7299C46.4887 29.9484 46.7671 30.0972 47.0702 30.1575C47.3733 30.2178 47.6874 30.1868 47.9729 30.0686C48.2585 29.9503 48.5025 29.75 48.6742 29.4931C48.8459 29.2361 48.9375 28.934 48.9375 28.625C48.9375 28.2106 48.7729 27.8132 48.4799 27.5201C48.1868 27.2271 47.7894 27.0625 47.375 27.0625Z" fill="white"/>
</g>
<defs>
<clipPath id="clip0_47_1048">
<rect width="50" height="50" fill="white" transform="translate(13 13)"/>
</clipPath>
</defs>
</svg>
