<svg width="76" height="76" viewBox="0 0 76 76" fill="none" xmlns="http://www.w3.org/2000/svg">
<circle cx="38" cy="38" r="38" fill="#C49D7F"/>
<g clip-path="url(#clip0_47_1027)">
<path d="M23.5781 41.7031C23.4327 41.5239 23.2494 41.3791 23.0414 41.2791C22.8334 41.1792 22.6058 41.1265 22.375 41.125H14.5625C14.1481 41.125 13.7507 41.2896 13.4576 41.5826C13.1646 41.8757 13 42.2731 13 42.6875V58.3125C13 58.7269 13.1646 59.1243 13.4576 59.4174C13.7507 59.7104 14.1481 59.875 14.5625 59.875H19.25C19.6155 59.8824 19.9721 59.7613 20.2576 59.5329C20.5431 59.3045 20.7395 58.9832 20.8125 58.625L21.0469 57.4687L21.75 53.9375L23.0938 47.2344L23.7969 43.7187L23.9375 43C23.978 42.7707 23.9668 42.5353 23.9046 42.3109C23.8424 42.0865 23.7309 41.8789 23.5781 41.7031ZM17.9688 56.75H16.125V44.25H20.4688L17.9688 56.75Z" fill="white"/>
<path d="M31.0469 44.6563C31.1439 44.6193 31.2493 44.61 31.3514 44.6293C31.4534 44.6486 31.5481 44.6958 31.625 44.7656L36.9687 50.125C37.068 50.2246 37.1237 50.3594 37.1237 50.5C37.1237 50.6406 37.068 50.7754 36.9687 50.875L35.6562 52.2031L37.8594 54.4063L39.1875 53.0938C39.867 52.4014 40.2476 51.4701 40.2476 50.5C40.2476 49.5299 39.867 48.5986 39.1875 47.9063L33.8281 42.5625C33.3411 42.0599 32.7169 41.7118 32.0333 41.5617C31.3497 41.4117 30.6371 41.4663 29.9844 41.7188L23.7344 43.7188L23.0312 47.2344L31.0469 44.6563Z" fill="white"/>
<path d="M37.8594 54.4062L38.4844 55.0312C38.5903 55.1305 38.7298 55.1863 38.875 55.1875H45.3125C45.3942 55.2109 45.4808 55.2109 45.5625 55.1875L46.8906 54.5312C47.5765 54.1864 48.3538 54.0672 49.1115 54.1907C49.8692 54.3142 50.5685 54.674 51.1094 55.2187C51.5206 55.6221 51.8375 56.1115 52.0374 56.6518C52.2373 57.192 52.3152 57.7698 52.2656 58.3437C52.2006 58.9232 52.0087 59.4813 51.7035 59.9782C51.3984 60.4751 50.9874 60.8987 50.5 61.2187L48.7344 62.3906C48.1316 62.7882 47.4253 63.0001 46.7031 63H29.4375C28.483 63.0038 27.5402 62.7889 26.6816 62.3718C25.8231 61.9547 25.0714 61.3464 24.4844 60.5937L21.0156 57.4687L21.7187 53.9375C21.7691 53.9632 21.8163 53.9947 21.8594 54.0312L26.6719 58.3125C26.7524 58.3774 26.8257 58.4507 26.8906 58.5312C27.1831 58.9315 27.5666 59.2564 28.0094 59.4792C28.4523 59.702 28.9418 59.8162 29.4375 59.8125H46.7344C46.841 59.8148 46.9453 59.7818 47.0313 59.7187L48.7969 58.5469C48.8943 58.4815 48.9768 58.3961 49.0387 58.2964C49.1007 58.1968 49.1407 58.0851 49.1562 57.9687C49.1615 57.7502 49.0833 57.5379 48.9375 57.375C48.8552 57.2927 48.7493 57.238 48.6346 57.2184C48.5198 57.1988 48.4018 57.2153 48.2969 57.2656L46.9688 57.9219C46.4588 58.1755 45.8976 58.3091 45.3281 58.3125H38.875C38.3924 58.3161 37.9141 58.2226 37.4684 58.0373C37.0228 57.8521 36.619 57.579 36.2812 57.2344L32.2031 53.1719C31.9089 52.8776 31.7436 52.4786 31.7436 52.0625C31.7436 51.6464 31.9089 51.2473 32.2031 50.9531C32.4973 50.6589 32.8964 50.4936 33.3125 50.4936C33.7286 50.4936 34.1277 50.6589 34.4219 50.9531L35.6562 52.2031L37.8594 54.4062Z" fill="white"/>
<path d="M61.4375 23.1562H50.3437C49.5797 23.1352 48.8383 23.4176 48.282 23.9418C47.7256 24.4659 47.3995 25.1891 47.375 25.9531V28.625H44.25V24.7187C44.3649 23.5838 44.9201 22.5391 45.7964 21.8088C46.6728 21.0785 47.8004 20.7208 48.9375 20.8125H61.4375C61.8519 20.8125 62.2493 20.6479 62.5424 20.3548C62.8354 20.0618 63 19.6644 63 19.25C63 18.8356 62.8354 18.4382 62.5424 18.1451C62.2493 17.8521 61.8519 17.6875 61.4375 17.6875H48.9375C46.9705 17.5895 45.0447 18.274 43.5808 19.5915C42.1169 20.909 41.234 22.7523 41.125 24.7187V28.7812C41.1651 29.5827 41.512 30.3379 42.0937 30.8906C42.6755 31.4433 43.4476 31.751 44.25 31.75H47.375C48.1774 31.751 48.9495 31.4433 49.5313 30.8906C50.113 30.3379 50.4599 29.5827 50.5 28.7812V26.2812H61.4375C61.8519 26.2812 62.2493 26.1166 62.5424 25.8236C62.8354 25.5306 63 25.1331 63 24.7187C63 24.3043 62.8354 23.9069 62.5424 23.6139C62.2493 23.3209 61.8519 23.1562 61.4375 23.1562Z" fill="white"/>
<path d="M50.5 16.125H58.3125C58.7269 16.125 59.1243 15.9604 59.4174 15.6674C59.7104 15.3743 59.875 14.9769 59.875 14.5625C59.875 14.1481 59.7104 13.7507 59.4174 13.4576C59.1243 13.1646 58.7269 13 58.3125 13H50.5C50.0856 13 49.6882 13.1646 49.3951 13.4576C49.1021 13.7507 48.9375 14.1481 48.9375 14.5625C48.9375 14.9769 49.1021 15.3743 49.3951 15.6674C49.6882 15.9604 50.0856 16.125 50.5 16.125Z" fill="white"/>
<path d="M42.6875 34.0938C42.2731 34.0938 41.8757 34.2584 41.5826 34.5514C41.2896 34.8444 41.125 35.2418 41.125 35.6562V41.9062C41.125 42.3207 41.2896 42.7181 41.5826 43.0111C41.8757 43.3041 42.2731 43.4688 42.6875 43.4688C43.1019 43.4688 43.4993 43.3041 43.7924 43.0111C44.0854 42.7181 44.25 42.3207 44.25 41.9062V35.6562C44.25 35.2418 44.0854 34.8444 43.7924 34.5514C43.4993 34.2584 43.1019 34.0938 42.6875 34.0938Z" fill="white"/>
<path d="M47.375 34.0938C46.9606 34.0938 46.5632 34.2584 46.2701 34.5514C45.9771 34.8444 45.8125 35.2418 45.8125 35.6562V46.5938C45.8125 47.0082 45.9771 47.4056 46.2701 47.6986C46.5632 47.9916 46.9606 48.1562 47.375 48.1562C47.7894 48.1562 48.1868 47.9916 48.4799 47.6986C48.7729 47.4056 48.9375 47.0082 48.9375 46.5938V35.6562C48.9375 35.2418 48.7729 34.8444 48.4799 34.5514C48.1868 34.2584 47.7894 34.0938 47.375 34.0938Z" fill="white"/>
<path d="M55.1875 27.0625H53.625C53.2106 27.0625 52.8132 27.2271 52.5201 27.5201C52.2271 27.8132 52.0625 28.2106 52.0625 28.625C52.0625 29.0394 52.2271 29.4368 52.5201 29.7299C52.8132 30.0229 53.2106 30.1875 53.625 30.1875H55.1875C55.6019 30.1875 55.9993 30.0229 56.2924 29.7299C56.5854 29.4368 56.75 29.0394 56.75 28.625C56.75 28.2106 56.5854 27.8132 56.2924 27.5201C55.9993 27.2271 55.6019 27.0625 55.1875 27.0625Z" fill="white"/>
</g>
<defs>
<clipPath id="clip0_47_1027">
<rect width="50" height="50" fill="white" transform="translate(13 13)"/>
</clipPath>
</defs>
</svg>
