<svg width="25" height="24" viewBox="0 0 25 24" fill="none" xmlns="http://www.w3.org/2000/svg">
<path d="M24.4217 11.8058C24.4217 18.0247 19.0924 23.1116 12.4608 23.1116C5.82927 23.1116 0.5 18.0247 0.5 11.8058C0.5 5.58687 5.82927 0.5 12.4608 0.5C19.0924 0.5 24.4217 5.58687 24.4217 11.8058Z" stroke="white"/>
<path d="M14.6563 16.952H10.2654C9.40739 16.9511 8.5848 16.6277 7.97812 16.0529C7.37143 15.4781 7.0302 14.6987 7.0293 13.8858L7.0293 9.72566C7.03027 8.91279 7.37152 8.13348 7.9782 7.55869C8.58487 6.9839 9.40743 6.66059 10.2654 6.65967H14.6563C15.5143 6.66053 16.3369 6.98382 16.9437 7.55861C17.5504 8.13341 17.8917 8.91275 17.8927 9.72566V13.8858C17.8917 14.6987 17.5505 15.4781 16.9438 16.053C16.337 16.6278 15.5144 16.9511 14.6563 16.952ZM10.2654 7.69488C9.69712 7.69551 9.15231 7.90967 8.75048 8.29038C8.34865 8.67109 8.12261 9.18726 8.12194 9.72566V13.8858C8.12261 14.4242 8.34866 14.9403 8.7505 15.321C9.15233 15.7017 9.69714 15.9158 10.2654 15.9164H14.6563C15.2246 15.9158 15.7693 15.7017 16.1712 15.321C16.573 14.9403 16.7989 14.4242 16.7996 13.8858V9.72566C16.7989 9.18728 16.573 8.67111 16.1712 8.29039C15.7694 7.90968 15.2246 7.69551 14.6563 7.69488H10.2654ZM12.4603 14.4674C11.9047 14.4672 11.3616 14.311 10.8997 14.0184C10.4378 13.7258 10.0778 13.31 9.86531 12.8236C9.65282 12.3372 9.59733 11.802 9.70585 11.2857C9.81438 10.7694 10.082 10.2952 10.475 9.92307C10.868 9.5509 11.3686 9.2975 11.9136 9.19489C12.4586 9.09227 13.0234 9.14507 13.5367 9.34659C14.05 9.54811 14.4887 9.88932 14.7974 10.3271C15.106 10.7648 15.2707 11.2794 15.2707 11.8058C15.2699 12.5116 14.9737 13.1883 14.4469 13.6873C13.9201 14.1864 13.2059 14.467 12.461 14.4676L12.4603 14.4674ZM12.4603 10.1784C12.1207 10.1784 11.7888 10.2738 11.5065 10.4525C11.2241 10.6312 11.0041 10.8853 10.8742 11.1825C10.7442 11.4797 10.7102 11.8068 10.7765 12.1223C10.8427 12.4378 11.0062 12.7276 11.2463 12.9551C11.4864 13.1826 11.7923 13.3375 12.1254 13.4003C12.4584 13.463 12.8036 13.4308 13.1173 13.3077C13.431 13.1846 13.6991 12.9761 13.8878 12.7086C14.0764 12.4412 14.1771 12.1267 14.1771 11.805C14.1764 11.374 13.9953 10.9608 13.6737 10.6561C13.352 10.3514 12.9159 10.1799 12.461 10.1793L12.4603 10.1784ZM15.2752 9.80083C15.1421 9.80078 15.0119 9.76333 14.9012 9.6932C14.7905 9.62306 14.7042 9.5234 14.6533 9.40682C14.6024 9.29024 14.5891 9.16196 14.6151 9.03822C14.6412 8.91448 14.7053 8.80084 14.7995 8.71165C14.8937 8.62246 15.0137 8.56174 15.1443 8.53717C15.275 8.5126 15.4103 8.52527 15.5334 8.5736C15.6564 8.62192 15.7615 8.70372 15.8355 8.80865C15.9094 8.91358 15.9488 9.03694 15.9488 9.16311C15.9488 9.33228 15.8779 9.49455 15.7518 9.61427C15.6256 9.734 15.4545 9.80141 15.2759 9.80169L15.2752 9.80083Z" fill="white"/>
</svg>
