<svg width="28" height="28" viewBox="0 0 28 28" fill="none" xmlns="http://www.w3.org/2000/svg">
<circle cx="14" cy="14" r="13.5" stroke="white"/>
<path d="M13.5678 21.4738L13.5674 21.4741C13.5471 21.492 13.5237 21.5 13.5 21.5C13.4763 21.5 13.4529 21.492 13.4326 21.4741L13.4322 21.4738C13.3413 21.3939 12.095 20.2872 10.8753 18.634C9.64613 16.9681 8.5 14.822 8.5 12.6519C8.5 9.79882 10.756 7.5 13.5 7.5C16.244 7.5 18.5 9.79882 18.5 12.6519C18.5 14.822 17.3539 16.9681 16.1247 18.634C14.905 20.2872 13.6587 21.3939 13.5678 21.4738ZM13.1494 20.8821L13.4996 21.2253L13.8496 20.8819C14.4285 20.3138 15.5251 19.1602 16.4802 17.7111C17.4289 16.2718 18.2778 14.4815 18.2778 12.6519C18.2778 9.96175 16.1477 7.75 13.5 7.75C10.8523 7.75 8.72222 9.96175 8.72222 12.6519C8.72222 14.4845 9.57069 16.2751 10.5192 17.7139C11.474 19.1625 12.5705 20.3146 13.1494 20.8821ZM13.5 14.6713C12.4386 14.6713 11.5556 13.7845 11.5556 12.6713C11.5556 11.558 12.4386 10.6712 13.5 10.6712C14.5614 10.6712 15.4444 11.558 15.4444 12.6713C15.4444 13.7845 14.5614 14.6713 13.5 14.6713ZM13.5 10.9212C12.5399 10.9212 11.7778 11.717 11.7778 12.6713C11.7778 13.6263 12.54 14.4213 13.5 14.4213C14.46 14.4213 15.2222 13.6263 15.2222 12.6713C15.2222 11.717 14.4601 10.9212 13.5 10.9212Z" fill="#D78B88" stroke="white"/>
</svg>
