<svg width="28" height="28" viewBox="0 0 28 28" fill="none" xmlns="http://www.w3.org/2000/svg">
<circle cx="14" cy="14" r="13.5" stroke="white"/>
<path d="M20.3333 10.9574V10.1679C20.4388 10.3618 20.5 10.5881 20.5 10.8333V18.1667C20.5 18.9235 19.917 19.5 19.25 19.5H8.75C8.08297 19.5 7.5 18.9235 7.5 18.1667V10.8333C7.5 10.5881 7.56121 10.3618 7.66667 10.1679V10.9574V18.1667C7.66667 18.7583 8.13109 19.2778 8.75 19.2778H19.25C19.8689 19.2778 20.3333 18.7583 20.3333 18.1667V10.9574ZM20.2114 9.98221L19.5103 10.5758L14.0433 15.2043L14.0433 15.2043L14.0419 15.2055C14.0336 15.2125 14.0263 15.2164 14.02 15.2187C14.0137 15.221 14.007 15.2222 14 15.2222C13.993 15.2222 13.9863 15.221 13.98 15.2187C13.9737 15.2164 13.9664 15.2125 13.9582 15.2055L13.9567 15.2043L8.48974 10.5758L7.78865 9.98221C7.82989 9.9296 7.87481 9.88051 7.92289 9.83535L8.83059 10.6038L13.6769 14.7068L14 14.9803L14.3231 14.7068L19.1694 10.6038L20.0771 9.83535C20.1252 9.88051 20.1701 9.9296 20.2114 9.98221ZM19.25 9.5C19.5001 9.5 19.7383 9.58103 19.9385 9.72222H18.8463H9.15367H8.06151C8.26167 9.58103 8.49993 9.5 8.75 9.5H19.25Z" fill="#D78B88" stroke="white"/>
</svg>
