<svg width="28" height="28" viewBox="0 0 28 28" fill="none" xmlns="http://www.w3.org/2000/svg">
<circle cx="14" cy="14" r="13.5" stroke="white"/>
<path d="M8.84451 21.4689L8.8444 21.4688L6.79611 19.6689C6.57322 19.4408 6.45823 19.1192 6.51364 18.6235C6.5719 18.1024 6.81771 17.4253 7.29148 16.5769L7.2916 16.5767C8.08815 15.1488 9.39424 13.4883 10.9753 11.9094L10.9756 11.9091C12.3386 10.5458 13.7113 9.43216 14.9323 8.66306C16.1742 7.88074 17.189 7.5 17.8541 7.5C18.2862 7.5 18.5153 7.65796 18.6268 7.76631L20.4679 9.83262C20.468 9.83273 20.4681 9.83285 20.4682 9.83296C20.4909 9.85883 20.5019 9.89175 20.4997 9.92456C20.4976 9.95766 20.4826 9.98853 20.4566 10.0113C20.4565 10.0113 20.4564 10.0114 20.4564 10.0114L17.3308 12.7196L17.3304 12.72C17.2924 12.753 17.2371 12.7595 17.1936 12.7376L17.1926 12.7371L15.0945 11.6884L14.7722 11.5273L14.5175 11.782L10.7784 15.5202L10.5234 15.775L10.6847 16.0975L11.7335 18.1938C11.7335 18.1938 11.7335 18.1938 11.7336 18.1939C11.7566 18.2402 11.7493 18.2943 11.7168 18.3318L11.7165 18.3322L9.02271 21.4558C9.02261 21.4559 9.02251 21.456 9.02241 21.4561C9.00081 21.4809 8.97139 21.4961 8.9395 21.4996L8.93215 21.4999C8.92841 21.5 8.92696 21.5 8.92696 21.5C8.89676 21.5 8.86738 21.489 8.84451 21.4689ZM6.94292 19.4639L6.95358 19.4744L6.96486 19.4843L8.53526 20.8643L8.91431 21.1974L9.24391 20.8153L11.2549 18.4841L11.4725 18.2318L11.3235 17.9338L10.2593 15.8066C10.2593 15.8066 10.2593 15.8066 10.2593 15.8065C10.2357 15.7593 10.2445 15.7007 10.2834 15.6614C10.2835 15.6613 10.2836 15.6613 10.2837 15.6612L14.6592 11.2874C14.698 11.2487 14.755 11.2393 14.8042 11.2637C14.8043 11.2637 14.8044 11.2638 14.8045 11.2638L16.9312 12.3266L17.2299 12.4759L17.4822 12.2572L19.8143 10.236L20.1968 9.90438L19.8605 9.52597L18.4929 7.98722L18.464 7.95464L18.4298 7.92756C18.2461 7.78192 18.0382 7.75 17.8541 7.75C17.49 7.75 17.0601 7.86787 16.6055 8.05566C16.1416 8.24732 15.6134 8.52812 15.0413 8.89097C13.8965 9.61705 12.5492 10.6887 11.1522 12.0858C9.6065 13.63 8.31017 15.2657 7.51003 16.6987C7.07461 17.4786 6.86801 18.0518 6.78704 18.4641C6.74656 18.6702 6.7354 18.8466 6.74861 18.9942C6.7552 19.0677 6.76853 19.1419 6.7919 19.2126C6.81156 19.272 6.85295 19.3747 6.94292 19.4639Z" fill="#D78B88" stroke="white"/>
</svg>
