<svg width="28" height="28" viewBox="0 0 28 28" fill="none" xmlns="http://www.w3.org/2000/svg">
<circle cx="14" cy="14" r="13.5" stroke="white"/>
<g clip-path="url(#clip0_284_565)">
<path d="M13.5996 5.6001C18.018 5.6001 21.5996 9.1817 21.5996 13.6001C21.5996 18.0185 18.018 21.6001 13.5996 21.6001C9.18121 21.6001 5.59961 18.0185 5.59961 13.6001C5.59961 9.1817 9.18121 5.6001 13.5996 5.6001ZM13.5996 6.7161C11.7739 6.7161 10.0229 7.44137 8.73189 8.73237C7.44089 10.0234 6.71561 11.7743 6.71561 13.6001C6.71561 15.4258 7.44089 17.1768 8.73189 18.4678C10.0229 19.7588 11.7739 20.4841 13.5996 20.4841C15.4254 20.4841 17.1763 19.7588 18.4673 18.4678C19.7583 17.1768 20.4836 15.4258 20.4836 13.6001C20.4836 11.7743 19.7583 10.0234 18.4673 8.73237C17.1763 7.44137 15.4254 6.7161 13.5996 6.7161ZM12.8556 10.0649C13.1636 10.0649 13.4132 10.3153 13.4132 10.6233V14.5305H17.3204C17.4647 14.536 17.6013 14.5971 17.7015 14.7012C17.8017 14.8052 17.8577 14.9441 17.8577 15.0885C17.8577 15.2329 17.8017 15.3718 17.7015 15.4758C17.6013 15.5799 17.4647 15.641 17.3204 15.6465H12.8556C12.7075 15.6465 12.5655 15.5877 12.4608 15.4829C12.356 15.3782 12.2972 15.2362 12.2972 15.0881V10.6241C12.2972 10.3153 12.5468 10.0649 12.8556 10.0649Z" fill="white"/>
</g>
<defs>
<clipPath id="clip0_284_565">
<rect width="16" height="16" fill="white" transform="translate(5.59961 5.6001)"/>
</clipPath>
</defs>
</svg>
